<svg aria-hidden="true" style="position: absolute; width: 0; height: 0; overflow: hidden;" version="1.1" xmlns="http://www.w3.org/2000/svg" xmlns:xlink="http://www.w3.org/1999/xlink">
<defs>
<symbol id="icon-astronaut-1" viewBox="0 0 64 64">
<path fill="#4d5ae5" style="fill: var(--color1, #4d5ae5)" d="M63.948 9.048c-0.126-0.385-0.459-0.667-0.861-0.725l-3.821-0.556-1.71-3.462c-0.358-0.73-1.554-0.73-1.913 0l-1.71 3.462-3.821 0.556c-0.402 0.059-0.735 0.339-0.862 0.725-0.125 0.386-0.021 0.811 0.27 1.093l2.766 2.696-0.653 3.806c-0.068 0.4 0.096 0.804 0.423 1.043 0.332 0.241 0.765 0.271 1.124 0.081l3.418-1.797 3.418 1.797c0.156 0.082 0.328 0.123 0.497 0.123 0.221 0 0.442-0.068 0.627-0.204 0.328-0.239 0.493-0.643 0.423-1.043l-0.653-3.806 2.766-2.696c0.29-0.284 0.394-0.707 0.27-1.093zM59.022 11.702c-0.251 0.244-0.366 0.598-0.306 0.944l0.382 2.228-2.001-1.052c-0.156-0.082-0.326-0.123-0.497-0.123s-0.34 0.040-0.497 0.123l-2.001 1.052 0.382-2.228c0.060-0.346-0.056-0.699-0.306-0.944l-1.62-1.579 2.238-0.325c0.348-0.050 0.648-0.269 0.803-0.584l1.001-2.027 1.001 2.027c0.156 0.315 0.456 0.533 0.803 0.584l2.238 0.325-1.618 1.579z"></path>
<path fill="#4d5ae5" style="fill: var(--color1, #4d5ae5)" d="M52.267 41.044h-2.133v2.133h2.133v-2.133z"></path>
<path fill="#4d5ae5" style="fill: var(--color1, #4d5ae5)" d="M52.267 45.311h-2.133v2.133h2.133v-2.133z"></path>
<path fill="#4d5ae5" style="fill: var(--color1, #4d5ae5)" d="M54.4 43.178h-2.133v2.133h2.133v-2.133z"></path>
<path fill="#4d5ae5" style="fill: var(--color1, #4d5ae5)" d="M50.134 43.178h-2.133v2.133h2.133v-2.133z"></path>
<path fill="#4d5ae5" style="fill: var(--color1, #4d5ae5)" d="M44.8 52.778h-2.133v2.133h2.133v-2.133z"></path>
<path fill="#4d5ae5" style="fill: var(--color1, #4d5ae5)" d="M44.8 57.045h-2.133v2.133h2.133v-2.133z"></path>
<path fill="#4d5ae5" style="fill: var(--color1, #4d5ae5)" d="M46.934 54.911h-2.133v2.133h2.133v-2.133z"></path>
<path fill="#4d5ae5" style="fill: var(--color1, #4d5ae5)" d="M42.667 54.911h-2.133v2.133h2.133v-2.133z"></path>
<path fill="#4d5ae5" style="fill: var(--color1, #4d5ae5)" d="M32 48.511h-2.133v2.133h2.133v-2.133z"></path>
<path fill="#4d5ae5" style="fill: var(--color1, #4d5ae5)" d="M32 52.778h-2.133v2.133h2.133v-2.133z"></path>
<path fill="#4d5ae5" style="fill: var(--color1, #4d5ae5)" d="M34.133 50.645h-2.133v2.133h2.133v-2.133z"></path>
<path fill="#4d5ae5" style="fill: var(--color1, #4d5ae5)" d="M29.867 50.645h-2.133v2.133h2.133v-2.133z"></path>
<path fill="#4d5ae5" style="fill: var(--color1, #4d5ae5)" d="M11.733 12.244h-2.133v2.133h2.133v-2.133z"></path>
<path fill="#4d5ae5" style="fill: var(--color1, #4d5ae5)" d="M11.733 16.511h-2.133v2.133h2.133v-2.133z"></path>
<path fill="#4d5ae5" style="fill: var(--color1, #4d5ae5)" d="M13.866 14.377h-2.133v2.133h2.133v-2.133z"></path>
<path fill="#4d5ae5" style="fill: var(--color1, #4d5ae5)" d="M9.6 14.377h-2.133v2.133h2.133v-2.133z"></path>
<path fill="#2e2f42" style="fill: var(--color2, #2e2f42)" d="M49.429 28.319c-0.575-0.776-1.419-1.275-2.377-1.409-0.962-0.137-1.912 0.116-2.68 0.704l-2.505 1.92-3.795 2.834-2.716-1.082c4.843-2.173 8.227-7.017 8.227-12.64 0-7.646-6.245-13.867-13.922-13.867s-13.922 6.221-13.922 13.867c0 2.771 0.829 5.348 2.24 7.517l-5.528-0.048c-0.003 0-0.006 0-0.010 0-0.017 0-0.031 0.009-0.047 0.010-0.106 0.004-0.209 0.026-0.31 0.062-0.026 0.010-0.052 0.015-0.077 0.027-0.013 0.005-0.026 0.006-0.038 0.013l-6.466 3.193c-0.001 0-0.002 0-0.002 0.001l-3.787 1.821c-0.042 0.018-0.084 0.043-0.126 0.070-1.509 1.005-2.023 2.978-1.197 4.591 0.441 0.858 1.19 1.489 2.112 1.778 0.355 0.111 0.718 0.165 1.078 0.165 0.579 0 1.153-0.142 1.679-0.422l2.776-1.476 4.528-2.338 2.714-0.016-10.883 10.831c-0.001 0.001-0.002 0.001-0.003 0.002l-2.677 2.667c-0.632 0.629-0.98 1.465-0.98 2.355 0 0.89 0.348 1.727 0.98 2.357 0.65 0.646 1.504 0.971 2.358 0.971 0.856 0 1.709-0.324 2.361-0.971l2.628-2.618 3.482-2.599 1.802 1.794-3.523 3.508c-0.001 0.001-0.002 0.001-0.003 0.002l-2.677 2.667c-0.633 0.629-0.98 1.465-0.98 2.355 0 0.89 0.348 1.727 0.98 2.357 0.65 0.646 1.505 0.971 2.36 0.971s1.71-0.324 2.361-0.971l6.963-6.933c0.001-0.001 0.001-0.002 0.002-0.003l2.019-2-0.008-0.008c0.013-0.013 0.031-0.017 0.044-0.031l10.332-11.316 6.942 0.988c0.050 0.008 0.1 0.011 0.15 0.011 0.129 0 0.254-0.031 0.374-0.077 0.035-0.013 0.066-0.030 0.099-0.047 0.038-0.019 0.079-0.030 0.115-0.054l6.427-4.267c0.023-0.016 0.036-0.042 0.059-0.059 0.026-0.020 0.058-0.029 0.081-0.051l2.543-2.382c1.323-1.24 1.505-3.271 0.424-4.724zM4.261 35.54c-0.347 0.186-0.74 0.223-1.117 0.103-0.373-0.116-0.676-0.371-0.853-0.716-0.322-0.627-0.135-1.391 0.429-1.804l2.627-1.264 0.898 2.625-1.984 1.055zM11.255 31.885l-3.097 1.6-0.878-2.567 4.054-2.001-0.079 2.968zM41.454 18.644c0 1.837-0.438 3.569-1.198 5.119l-8.363-3.798c-0.087-1.147-0.683-2.15-1.576-2.776l2.928-9.721c4.755 1.513 8.209 5.949 8.209 11.176zM17.876 18.644c0-6.469 5.289-11.733 11.789-11.733 0.506 0 1.001 0.043 1.49 0.104l-2.864 9.507c-0.038-0.001-0.075-0.012-0.114-0.012-2.065 0-3.745 1.675-3.745 3.733s1.68 3.733 3.745 3.733c1.389 0 2.589-0.767 3.236-1.889l7.725 3.509c-2.149 2.893-5.59 4.78-9.473 4.78-6.5 0-11.789-5.264-11.789-11.734zM29.789 20.244c0 0.882-0.723 1.6-1.612 1.6s-1.612-0.718-1.612-1.6c0-0.882 0.723-1.6 1.612-1.6s1.612 0.718 1.612 1.6zM4.93 50.292c-0.473 0.468-1.237 0.467-1.709 0.001-0.227-0.227-0.352-0.527-0.352-0.846 0-0.318 0.125-0.618 0.352-0.843l1.924-1.917 1.702 1.695-1.918 1.909zM11.357 57.759c-0.473 0.468-1.238 0.469-1.71 0.001-0.227-0.227-0.352-0.527-0.352-0.846 0-0.318 0.125-0.618 0.352-0.843l1.925-1.918 1.704 1.695-1.919 1.91zM18.321 50.822c-0.001 0.001-0.002 0.001-0.003 0.002l-3.53 3.52-1.704-1.695 3.526-3.51c0 0 0 0 0-0.001 0.001-0.001 0.002-0.001 0.003-0.002 0.080-0.080 0.13-0.176 0.179-0.271 0.014-0.028 0.041-0.051 0.052-0.080 0.033-0.082 0.038-0.171 0.051-0.257 0.006-0.049 0.028-0.095 0.028-0.145 0-0.072-0.026-0.141-0.041-0.211-0.013-0.064-0.013-0.129-0.037-0.191-0.041-0.1-0.11-0.189-0.182-0.275-0.020-0.023-0.028-0.053-0.050-0.076 0 0 0 0-0.001 0s-0.001-0.003-0.002-0.004l-3.214-3.2c-0.034-0.034-0.078-0.048-0.116-0.077-0.056-0.044-0.111-0.084-0.174-0.115-0.061-0.030-0.123-0.048-0.187-0.065-0.068-0.019-0.134-0.034-0.206-0.039-0.065-0.004-0.126 0.002-0.191 0.010-0.072 0.008-0.139 0.018-0.208 0.041-0.067 0.021-0.127 0.054-0.189 0.090-0.040 0.022-0.084 0.030-0.122 0.058l-3.547 2.648-1.802-1.794 4.798-4.772 8.721 8.577-1.855 1.838zM31.958 36.788c-0.031-0.004-0.060 0.008-0.091 0.005-0.078-0.004-0.152 0.001-0.23 0.014-0.061 0.011-0.118 0.022-0.176 0.043-0.068 0.023-0.13 0.056-0.193 0.094-0.060 0.036-0.114 0.075-0.166 0.123-0.026 0.022-0.056 0.033-0.080 0.059l-9.396 10.291-8.656-8.513 5.666-5.636c0.417-0.416 0.419-1.091 0.003-1.509-0.21-0.21-0.486-0.314-0.763-0.313v-0.001l-4.437 0.027 0.056-3.215 6.208 0.053c2.53 2.588 6.059 4.202 9.963 4.202 0.875 0 1.728-0.091 2.559-0.245 0.080 0.064 0.159 0.129 0.259 0.17l4.819 1.92 0.305 1.517 0.356 1.771-6.005-0.854zM40.041 37.145l-0.626-3.116 2.893-2.16 1.893 2.513-4.16 2.763zM47.548 31.483l-1.676 1.57-1.862-2.473 1.663-1.275c0.31-0.239 0.702-0.336 1.086-0.286 0.386 0.054 0.727 0.256 0.96 0.569 0.433 0.584 0.359 1.397-0.171 1.894z"></path>
<path fill="#2e2f42" style="fill: var(--color2, #2e2f42)" d="M27.204 37.088l-4.286-4.267c-0.415-0.415-1.089-0.415-1.505 0l-4.285 4.267c-0.201 0.202-0.314 0.472-0.314 0.756s0.112 0.556 0.314 0.756l4.285 4.267c0.208 0.207 0.481 0.31 0.753 0.31s0.545-0.103 0.752-0.31l4.286-4.267c0.201-0.2 0.315-0.472 0.315-0.756s-0.113-0.556-0.315-0.756zM22.166 40.606l-2.773-2.762 2.773-2.762 2.774 2.762-2.774 2.762z"></path>
<path fill="#2e2f42" style="fill: var(--color2, #2e2f42)" d="M34.328 10.142l-0.515 2.072c0.142 0.035 3.475 0.903 3.475 4.298h2.133c-0-4.034-3.331-5.931-5.093-6.369z"></path>
<path fill="#2e2f42" style="fill: var(--color2, #2e2f42)" d="M39.422 18.644h-2.133v2.134h2.133v-2.134z"></path>
</symbol>
<symbol id="icon-diagram-1" viewBox="0 0 64 64">
<path fill="#4d5ae5" style="fill: var(--color1, #4d5ae5)" d="M29.851 29.929h2.132v9.595h-2.132v-9.595z"></path>
<path fill="#4d5ae5" style="fill: var(--color1, #4d5ae5)" d="M38.38 34.194h2.132v5.331h-2.132v-5.331z"></path>
<path fill="#4d5ae5" style="fill: var(--color1, #4d5ae5)" d="M21.322 37.392h2.132v2.132h-2.132v-2.132z"></path>
<path fill="#4d5ae5" style="fill: var(--color1, #4d5ae5)" d="M14.925 36.326h2.132v3.198h-2.132v-3.198z"></path>
<path fill="#2e2f42" style="fill: var(--color2, #2e2f42)" d="M3.198 56.582h51.173c1.766 0 3.198-1.432 3.198-3.198v-4.264c0-1.766-1.432-3.198-3.198-3.198h-1.066v-26.587l6.056-5.737c1.405 0.693 3.107 0.272 4.026-0.997s0.791-3.017-0.305-4.137-2.84-1.287-4.13-0.396c-1.289 0.892-1.747 2.584-1.085 4.004l-4.563 4.325v-2.46c0-1.766-1.432-3.198-3.198-3.198h-42.644c-1.766 0-3.198 1.432-3.198 3.198v31.983h-1.066c-1.766 0-3.198 1.432-3.198 3.198v4.264c0 1.766 1.432 3.198 3.198 3.198zM60.768 9.673c0.589 0 1.066 0.477 1.066 1.066s-0.477 1.066-1.066 1.066c-0.589 0-1.066-0.477-1.066-1.066s0.477-1.066 1.066-1.066zM6.397 13.938c0-0.589 0.477-1.066 1.066-1.066h42.644c0.589 0 1.066 0.477 1.066 1.066v4.477l-2.132 2.026v-4.371c0-0.589-0.477-1.066-1.066-1.066h-38.38c-0.589 0-1.066 0.477-1.066 1.066v26.653c0 0.589 0.477 1.066 1.066 1.066h38.38c0.589 0 1.066-0.477 1.066-1.066v-19.349l2.132-2.020v24.567h-44.777v-31.983zM15.992 27.797c-1.442-0.004-2.709 0.957-3.093 2.347s0.21 2.865 1.451 3.601c1.24 0.736 2.82 0.551 3.856-0.452l3.706 1.859c0.43 0.215 0.953 0.114 1.273-0.245l7.878-8.863 7.744 5.803c0.415 0.311 0.995 0.278 1.372-0.079l6.73-6.375v16.262h-36.248v-24.52h36.248v5.321l-7.543 7.143-7.809-5.854c-0.444-0.332-1.068-0.27-1.436 0.144l-7.986 8.985-2.985-1.493c0.022-0.128 0.035-0.257 0.041-0.387 0-1.766-1.432-3.198-3.198-3.198zM17.058 30.995c0 0.589-0.477 1.066-1.066 1.066s-1.066-0.477-1.066-1.066c0-0.589 0.477-1.066 1.066-1.066s1.066 0.477 1.066 1.066zM23.454 48.053h10.661v1.066c0 0.589-0.477 1.066-1.066 1.066h-8.529c-0.589 0-1.066-0.477-1.066-1.066v-1.066zM2.132 49.119c0-0.589 0.477-1.066 1.066-1.066h18.124v1.066c0 1.766 1.432 3.198 3.198 3.198h8.529c1.766 0 3.198-1.432 3.198-3.198v-1.066h18.124c0.589 0 1.066 0.477 1.066 1.066v4.264c0 0.589-0.477 1.066-1.066 1.066h-51.173c-0.589 0-1.066-0.477-1.066-1.066v-4.264z"></path>
</symbol>
<symbol id="icon-clock-1" viewBox="0 0 64 64">
<path fill="#2e2f42" style="fill: var(--color2, #2e2f42)" d="M62.593 30.602c-0.003-16.905-13.711-30.606-30.616-30.602s-30.606 13.711-30.602 30.616c0.003 13.316 8.614 25.102 21.299 29.152 0.121 0.038 0.247 0.058 0.374 0.057 0.241-0.001 0.477-0.065 0.685-0.188 0.27-0.16 0.472-0.414 0.566-0.713l7.73-24.5c2.113-0.011 3.817-1.733 3.806-3.846s-1.733-3.817-3.846-3.807c-0.568 0.002-1.129 0.133-1.64 0.383l-10.212-10.213c-0.507-0.489-1.314-0.475-1.803 0.031-0.478 0.495-0.478 1.278 0 1.773l10.206 10.218c-0.783 1.599-0.335 3.528 1.073 4.618l-7.365 23.346c-14.556-5.362-22.009-21.508-16.647-36.063s21.508-22.009 36.063-16.647c14.556 5.362 22.009 21.508 16.647 36.063-2.62 7.111-8.002 12.862-14.924 15.947l-0.796-3.748c-0.145-0.689-0.823-1.129-1.512-0.983-0.217 0.046-0.419 0.148-0.585 0.296l-7.674 6.851c-0.526 0.468-0.573 1.274-0.105 1.801 0.152 0.171 0.348 0.298 0.566 0.368l9.797 3.127c0.67 0.215 1.389-0.153 1.604-0.824 0.068-0.212 0.080-0.438 0.034-0.655l-0.782-3.678c11.329-4.776 18.684-15.884 18.658-28.178zM31.984 29.327c0.704 0 1.275 0.571 1.275 1.275s-0.571 1.275-1.275 1.275c-0.705 0-1.275-0.571-1.275-1.275s0.571-1.275 1.275-1.275zM36.185 59.055l4.368-3.897 1.206 5.681-5.574-1.784z"></path>
<path fill="#4d5ae5" style="fill: var(--color1, #4d5ae5)" d="M30.709 6.37v2.551c0 0.705 0.571 1.275 1.275 1.275s1.275-0.571 1.275-1.275v-2.551c0-0.704-0.571-1.275-1.275-1.275s-1.275 0.571-1.275 1.275z"></path>
<path fill="#4d5ae5" style="fill: var(--color1, #4d5ae5)" d="M7.752 29.327c-0.705 0-1.275 0.571-1.275 1.275s0.571 1.275 1.275 1.275h2.551c0.705 0 1.275-0.571 1.275-1.275s-0.571-1.275-1.275-1.275h-2.551z"></path>
<path fill="#4d5ae5" style="fill: var(--color1, #4d5ae5)" d="M56.216 31.878c0.705 0 1.275-0.571 1.275-1.275s-0.571-1.275-1.275-1.275h-2.551c-0.704 0-1.275 0.571-1.275 1.275s0.571 1.275 1.275 1.275h2.551z"></path>
</symbol>
<symbol id="icon-antenna-1" viewBox="0 0 64 64">
<path fill="#2e2f42" style="fill: var(--color2, #2e2f42)" d="M61.546 44.195l-16.886-17.010 1.874-9.231c0.484 0.189 0.998 0.288 1.517 0.291h0.013c2.385 0.028 4.34-1.882 4.369-4.267s-1.882-4.34-4.267-4.369c-2.385-0.028-4.34 1.882-4.369 4.267-0.006 0.51 0.078 1.017 0.249 1.498l-9.92 1.211-16.181-16.266c-0.198-0.203-0.47-0.318-0.753-0.32-0.28 0.001-0.548 0.113-0.747 0.31l-3.025 3.008c-0.416 0.417-0.416 1.092 0 1.508l1.628 1.651c-6.306 11.596-4.258 25.956 5.039 35.326 0.085 0.082 0.184 0.148 0.292 0.195-0.067 0.361-0.102 0.727-0.105 1.094v12.373h-12.8c-2.944 0.003-5.33 2.389-5.333 5.333v2.133c0 0.589 0.478 1.067 1.067 1.067h49.067c0.589 0 1.067-0.478 1.067-1.067v-2.133c-0.004-2.944-2.389-5.33-5.333-5.333h-12.8v-5.484c2.005 0.421 4.048 0.635 6.097 0.64 4.916-0.005 9.754-1.231 14.080-3.567l1.636 1.646c0.199 0.203 0.469 0.318 0.753 0.32 0.28-0.002 0.548-0.113 0.747-0.31l3.025-3.008c0.416-0.417 0.416-1.092 0-1.508zM46.56 12.466c0.835-0.831 2.186-0.827 3.017 0.008s0.827 2.186-0.008 3.017c-0.4 0.398-0.941 0.621-1.505 0.621h-0.006c-1.178-0.006-2.128-0.966-2.122-2.144 0.003-0.564 0.229-1.104 0.629-1.502h-0.004zM44.049 19.475l-1.197 5.891-2.351-2.365 3.548-3.526zM42.837 17.672l-3.84 3.818-2.971-2.987 6.811-0.831zM48.008 57.6c1.767 0 3.2 1.433 3.2 3.2v1.067h-46.933v-1.067c0-1.767 1.433-3.2 3.2-3.2h40.533zM33.075 53.333v2.133h-10.667v-2.133h10.667zM22.408 51.2v-8.107c0-2.588 2.393-4.693 5.333-4.693s5.333 2.106 5.333 4.693v8.107h-10.667zM35.208 47.808v-4.715c0-3.764-3.349-6.827-7.467-6.827-2.662-0.041-5.151 1.314-6.562 3.572-8.115-8.548-9.943-21.29-4.557-31.774l37.204 37.417c-5.745 2.922-12.33 3.745-18.618 2.326zM57.786 46.441l-42.114-42.362 1.509-1.504 15.87 15.96c0.008 0 0.012 0.014 0.019 0.019l26.229 26.383-1.514 1.504z"></path>
<path fill="#4d5ae5" style="fill: var(--color1, #4d5ae5)" d="M27.751 40.533h-0.010c-1.767-0.003-3.202 1.428-3.205 3.195s1.428 3.202 3.195 3.205h0.010c1.767 0.003 3.202-1.428 3.205-3.195s-1.428-3.202-3.195-3.205zM28.498 44.49c-0.201 0.2-0.473 0.311-0.756 0.31-0.589-0.003-1.064-0.483-1.061-1.072 0.002-0.282 0.115-0.552 0.314-0.751 0.199-0.197 0.467-0.309 0.747-0.31 0.589 0.003 1.064 0.483 1.061 1.072-0.002 0.282-0.115 0.552-0.314 0.751h0.010z"></path>
</symbol>
</defs>
</svg>



<svg aria-hidden="true" style="position: absolute; width: 0; height: 0; overflow: hidden;" version="1.1" xmlns="http://www.w3.org/2000/svg" xmlns:xlink="http://www.w3.org/1999/xlink">
<defs>
<symbol id="icon-Logo-6" viewBox="0 0 104 56">
<path d="M53.529 27.443c-0.444-0.591-0.656-1.289-0.606-1.992v-2.888c0-0.885 0.201-1.558 0.603-2.018s1.092-0.689 2.070-0.687c0.919 0 1.572 0.196 1.958 0.588 0.421 0.5 0.626 1.111 0.579 1.728v0.679h-1.645v-0.687c0.006-0.225-0.010-0.45-0.048-0.673-0.024-0.152-0.106-0.293-0.235-0.4-0.169-0.115-0.382-0.17-0.596-0.156-0.225-0.014-0.449 0.044-0.626 0.164-0.143 0.118-0.239 0.272-0.272 0.441-0.047 0.236-0.069 0.475-0.065 0.714v3.505c-0.026 0.338 0.047 0.676 0.211 0.984 0.082 0.104 0.195 0.187 0.328 0.239s0.28 0.071 0.424 0.055c0.211 0.015 0.42-0.042 0.582-0.159 0.134-0.115 0.22-0.265 0.245-0.426 0.038-0.233 0.056-0.467 0.051-0.702v-0.711h1.645v0.649c0.046 0.643-0.154 1.281-0.569 1.816-0.378 0.429-1.021 0.643-1.968 0.643s-1.662-0.229-2.067-0.705z"></path>
<path d="M60.376 27.473c-0.415-0.449-0.623-1.105-0.623-1.971v-3.038c0-0.858 0.208-1.507 0.623-1.948s1.11-0.66 2.084-0.658c0.967 0 1.658 0.219 2.073 0.658 0.415 0.441 0.627 1.090 0.627 1.948v3.038c0 0.858-0.211 1.516-0.633 1.968s-1.11 0.679-2.067 0.679-1.665-0.229-2.084-0.676zM63.226 26.744c0.149-0.281 0.217-0.59 0.197-0.899v-3.72c0.019-0.303-0.048-0.606-0.194-0.881-0.083-0.106-0.2-0.19-0.336-0.242s-0.286-0.070-0.434-0.052c-0.148-0.018-0.298 0-0.435 0.052s-0.253 0.136-0.338 0.242c-0.15 0.275-0.218 0.578-0.197 0.881v3.737c-0.021 0.309 0.047 0.618 0.197 0.899 0.096 0.095 0.214 0.171 0.347 0.223s0.277 0.079 0.423 0.079 0.29-0.027 0.423-0.079c0.133-0.052 0.251-0.128 0.347-0.223v-0.018z"></path>
<path d="M67.138 19.946h1.771l1.331 5.605 1.362-5.605h1.723l0.174 8.091h-1.273l-0.136-5.623-1.314 5.623h-1.021l-1.362-5.643-0.126 5.643h-1.287l0.16-8.091z"></path>
<path d="M75.483 19.946h2.758c1.589 0 2.383 0.766 2.383 2.297 0 1.467-0.836 2.199-2.509 2.197h-0.94v3.596h-1.702l0.010-8.091zM77.839 23.404c0.168 0.018 0.339 0.005 0.501-0.039s0.31-0.118 0.436-0.217c0.195-0.273 0.281-0.594 0.245-0.914 0.009-0.247-0.018-0.494-0.082-0.734-0.024-0.081-0.067-0.156-0.125-0.222s-0.132-0.121-0.215-0.163c-0.236-0.098-0.497-0.142-0.759-0.129h-0.661v2.418h0.661z"></path>
<path d="M83.079 19.946h1.828l1.876 8.091h-1.587l-0.371-1.866h-1.631l-0.381 1.866h-1.61l1.876-8.091zM84.641 25.234l-0.637-3.396-0.637 3.396h1.273z"></path>
<path d="M88.298 19.946h1.192l2.281 4.615v-4.615h1.413v8.091h-1.134l-2.295-4.818v4.818h-1.461l0.003-8.091z"></path>
<path d="M96.493 24.952l-1.896-4.994h1.597l1.158 3.208 1.086-3.208h1.563l-1.873 4.994v3.085h-1.634v-3.085z"></path>
<path d="M56.158 31.574v0.423h-1.389v3.287h-0.582v-3.287h-1.396v-0.423h3.367z"></path>
<path d="M60.512 35.284h-0.449c-0.046 0.003-0.091-0.010-0.126-0.035-0.034-0.021-0.060-0.051-0.075-0.085l-0.402-0.881h-1.927l-0.402 0.881c-0.011 0.037-0.032 0.071-0.061 0.1-0.036 0.025-0.081 0.037-0.126 0.035h-0.449l1.702-3.71h0.592l1.723 3.696zM57.693 33.907h1.607l-0.681-1.51c-0.050-0.114-0.092-0.231-0.126-0.35-0.024 0.070-0.044 0.138-0.065 0.197l-0.061 0.156-0.674 1.507z"></path>
<path d="M63.447 34.92c0.107 0.005 0.213 0.005 0.32 0 0.092-0.008 0.183-0.023 0.272-0.044 0.083-0.018 0.165-0.040 0.245-0.068 0.075-0.026 0.15-0.059 0.228-0.091v-0.834h-0.681c-0.017 0.001-0.034-0.001-0.049-0.006s-0.030-0.013-0.042-0.023c-0.011-0.008-0.020-0.019-0.026-0.030s-0.009-0.024-0.008-0.037v-0.285h1.321v1.422c-0.108 0.067-0.222 0.126-0.34 0.176-0.121 0.052-0.248 0.094-0.378 0.126-0.139 0.035-0.282 0.061-0.426 0.076-0.165 0.016-0.331 0.024-0.497 0.024-0.294 0.002-0.585-0.045-0.858-0.138-0.255-0.088-0.486-0.22-0.681-0.388-0.19-0.169-0.339-0.369-0.439-0.588-0.107-0.246-0.16-0.507-0.157-0.77-0.004-0.265 0.048-0.527 0.153-0.776 0.098-0.22 0.247-0.42 0.439-0.588 0.194-0.167 0.426-0.298 0.681-0.385 0.292-0.095 0.601-0.141 0.913-0.138 0.158-0 0.317 0.011 0.473 0.032 0.138 0.019 0.274 0.051 0.405 0.094 0.119 0.039 0.233 0.088 0.34 0.147 0.104 0.058 0.203 0.123 0.296 0.194l-0.163 0.229c-0.013 0.021-0.032 0.038-0.055 0.051s-0.050 0.019-0.077 0.020c-0.038-0.001-0.074-0.011-0.106-0.029-0.051-0.024-0.105-0.053-0.167-0.088-0.072-0.039-0.149-0.073-0.228-0.1-0.102-0.035-0.206-0.063-0.313-0.082-0.143-0.023-0.287-0.034-0.432-0.032-0.225-0.002-0.448 0.033-0.657 0.103-0.189 0.066-0.36 0.166-0.5 0.294-0.141 0.133-0.249 0.29-0.317 0.461-0.152 0.402-0.152 0.835 0 1.237 0.074 0.175 0.19 0.334 0.34 0.467 0.14 0.127 0.309 0.227 0.497 0.294 0.217 0.064 0.446 0.089 0.674 0.074v0z"></path>
<path d="M68.874 34.861h1.859v0.423h-2.428v-3.711h0.582l-0.014 3.287z"></path>
<path d="M72.667 35.284h-0.582v-3.711h0.582v3.711z"></path>
<path d="M74.833 31.591c0.035 0.017 0.065 0.040 0.089 0.068l2.489 2.797c-0.003-0.044-0.003-0.088 0-0.132 0-0.041 0-0.082 0-0.12v-2.644h0.507v3.725h-0.293c-0.043 0.003-0.087-0.004-0.126-0.021-0.035-0.018-0.067-0.042-0.092-0.070l-2.485-2.794c0 0.044 0 0.085 0 0.126s0 0.079 0 0.115v2.644h-0.487v-3.711h0.303c0.033 0 0.065 0.006 0.095 0.018v0z"></path>
<path d="M82.204 31.574v0.408h-2.063v1.225h1.672v0.394h-1.672v1.266h2.063v0.408h-2.662v-3.702h2.662z"></path>
<path d="M21.195 8.659l25.852 6.334v22.196l-25.852-6.331v-22.198zM19.537 6.767v25.169l29.165 7.148v-25.166l-29.165-7.151z"></path>
<path d="M35.168 50.767l-29.168-7.154v-25.166l29.168 7.151v25.169z"></path>
<path d="M20.020 8.374l25.515 6.255-10.851 9.366-25.518-6.258 10.854-9.363zM19.537 6.767l-13.537 11.681 29.168 7.151 13.534-11.681-29.165-7.151z"></path>
<path d="M36.809 49.351l11.893-10.265-11.893-2.917v13.182z"></path>
</symbol>
<symbol id="icon-Logo-5" viewBox="0 0 104 56">
<path d="M26.792 44.373c0.245 0.273 0.376 0.616 0.369 0.968 0.013 0.229-0.032 0.458-0.132 0.67s-0.25 0.4-0.441 0.553c-0.477 0.324-1.068 0.483-1.664 0.446h-2.925v-6.132h2.865c0.566-0.034 1.127 0.11 1.587 0.407 0.185 0.139 0.332 0.316 0.428 0.515s0.14 0.416 0.128 0.633c0.017 0.338-0.101 0.671-0.333 0.938-0.222 0.244-0.529 0.413-0.872 0.479 0.388 0.064 0.738 0.249 0.988 0.524v0zM23.361 43.447h1.225c0.278 0.019 0.555-0.054 0.779-0.204 0.092-0.075 0.164-0.168 0.209-0.272s0.064-0.216 0.054-0.327c0.009-0.111-0.010-0.222-0.055-0.326s-0.115-0.197-0.205-0.273c-0.231-0.154-0.516-0.228-0.802-0.207h-1.205v1.609zM25.484 45.799c0.098-0.077 0.175-0.173 0.226-0.281s0.072-0.225 0.064-0.342c0.007-0.118-0.015-0.237-0.067-0.346s-0.13-0.206-0.23-0.283c-0.239-0.16-0.534-0.238-0.832-0.222h-1.285v1.687h1.301c0.293 0.015 0.583-0.060 0.822-0.213v0z"></path>
<path d="M32.649 47.009l-1.594-2.397h-0.599v2.397h-1.371v-6.132h2.596c0.654-0.041 1.301 0.146 1.807 0.521 0.363 0.333 0.582 0.771 0.617 1.237s-0.115 0.927-0.424 1.301c-0.32 0.33-0.758 0.55-1.238 0.623l1.697 2.45h-1.491zM30.456 43.777h1.121c0.779 0 1.168-0.31 1.168-0.929 0.008-0.126-0.013-0.253-0.063-0.372s-0.125-0.227-0.224-0.318c-0.246-0.184-0.563-0.274-0.882-0.249h-1.135l0.013 1.866z"></path>
<path d="M40.143 45.775h-2.732l-0.483 1.234h-1.438l2.509-6.063h1.554l2.499 6.063h-1.438l-0.472-1.234zM39.777 44.846l-0.998-2.588-0.998 2.588h1.997z"></path>
<path d="M49.523 47.009h-1.361l-3.052-4.17v4.17h-1.358v-6.132h1.358l3.052 4.194v-4.194h1.361v6.132z"></path>
<path d="M57.29 45.542c-0.281 0.463-0.71 0.84-1.231 1.081-0.592 0.269-1.25 0.402-1.913 0.386h-2.423v-6.132h2.423c0.662-0.016 1.319 0.114 1.913 0.378 0.521 0.236 0.95 0.609 1.231 1.070 0.28 0.499 0.426 1.050 0.426 1.609s-0.146 1.11-0.426 1.609v0zM55.733 45.395c0.388-0.407 0.602-0.927 0.602-1.463s-0.214-1.056-0.602-1.463c-0.469-0.369-1.082-0.556-1.704-0.521h-0.945v3.969h0.945c0.622 0.035 1.234-0.152 1.704-0.521z"></path>
<path d="M40.995 6.767c0 0 17.567 5.971 17.194 14.611v14.613c0 0-17.554-5.974-17.188-14.613l-0.007-14.611z"></path>
<path d="M73.839 32.569c3.318-2.055 7.155-3.329 11.161-3.703v-4.575c-4.616 1.602-8.531 4.505-11.161 8.277v0z"></path>
<path d="M71.846 33.948c2.716-4.922 7.423-8.721 13.154-10.614v-13.181c0 0-25.018 8.505-24.489 20.809v20.806c0 0 1.115-0.381 2.869-1.093 0-0.665 0-1.336 0.080-2.010 0.518-5.712 3.534-11.005 8.386-14.715v0z"></path>
<path d="M69.466 41.677c0.132-1.443 0.425-2.87 0.875-4.26-3.021 3.204-4.851 7.18-5.231 11.369-0.037 0.395-0.057 0.791-0.067 1.198 1.421-0.614 3.075-1.381 4.812-2.283-0.443-1.982-0.574-4.010-0.389-6.025v0z"></path>
<path d="M70.461 41.752c-0.167 1.823-0.062 3.657 0.309 5.455 6.835-3.682 14.515-9.371 14.219-16.246v-0.599c-4.883 0.492-9.452 2.414-13.005 5.47-0.832 1.894-1.345 3.889-1.524 5.92v0z"></path>
</symbol>
<symbol id="icon-Logo-4" viewBox="0 0 104 56">
<path d="M24.078 21.518h-0.003c-2.386 0-4.32 1.744-4.32 3.895v0.003c0 2.151 1.934 3.894 4.32 3.894h0.003c2.386 0 4.32-1.744 4.32-3.894v-0.003c0-2.151-1.934-3.895-4.32-3.895z"></path>
<path d="M55.961 20.273c-0.007-2.988-1.326-5.851-3.668-7.964s-5.518-3.303-8.832-3.309v0c-3.315 0.005-6.492 1.195-8.835 3.308s-3.664 4.977-3.671 7.965v0 16.474c0 0 25.004-2.511 25.006-16.472v-0.003z"></path>
<path d="M11 42.154c0.006 2.079 0.924 4.071 2.554 5.541s3.839 2.299 6.145 2.305v0c2.305-0.006 4.514-0.834 6.144-2.304s2.549-3.461 2.555-5.539v0-11.463c0 0-17.398 1.748-17.398 11.46zM19.699 44.208c-0.451 0-0.891-0.12-1.266-0.346s-0.667-0.546-0.839-0.922-0.217-0.788-0.13-1.187c0.088-0.398 0.305-0.764 0.623-1.052s0.724-0.483 1.166-0.562c0.442-0.079 0.9-0.038 1.316 0.117s0.772 0.419 1.022 0.756c0.25 0.338 0.384 0.735 0.384 1.141 0.001 0.27-0.057 0.538-0.171 0.788s-0.282 0.477-0.493 0.669c-0.212 0.192-0.463 0.343-0.74 0.447s-0.574 0.157-0.874 0.157v-0.008z"></path>
<path d="M35.609 40.515v4.266h-0.879v-4.266h0.879zM37.308 42.337v0.686h-1.939v-0.686h1.939zM37.513 40.515v0.689h-2.145v-0.689h2.145zM41.527 42.548v0.202c0 0.324-0.044 0.615-0.132 0.873s-0.212 0.478-0.372 0.659c-0.16 0.18-0.351 0.317-0.574 0.413-0.221 0.096-0.466 0.143-0.735 0.143-0.268 0-0.513-0.048-0.735-0.143-0.221-0.096-0.412-0.233-0.574-0.413-0.162-0.182-0.288-0.401-0.378-0.659-0.088-0.258-0.132-0.549-0.132-0.873v-0.202c0-0.326 0.044-0.617 0.132-0.873 0.088-0.258 0.212-0.478 0.372-0.659 0.162-0.182 0.354-0.32 0.574-0.416 0.223-0.096 0.468-0.144 0.735-0.144 0.27 0 0.515 0.048 0.735 0.144 0.223 0.096 0.414 0.234 0.574 0.416 0.162 0.182 0.287 0.401 0.375 0.659 0.090 0.256 0.135 0.547 0.135 0.873zM40.639 42.75v-0.208c0-0.227-0.021-0.426-0.062-0.598s-0.102-0.316-0.182-0.434-0.178-0.205-0.293-0.264c-0.115-0.060-0.247-0.091-0.395-0.091s-0.28 0.030-0.395 0.091c-0.113 0.059-0.21 0.147-0.29 0.264-0.078 0.117-0.138 0.262-0.179 0.434s-0.062 0.371-0.062 0.598v0.208c0 0.225 0.021 0.424 0.062 0.598 0.041 0.172 0.102 0.317 0.182 0.437 0.080 0.117 0.178 0.206 0.293 0.267s0.247 0.091 0.395 0.091c0.148 0 0.28-0.030 0.395-0.091s0.212-0.149 0.29-0.267c0.078-0.119 0.138-0.265 0.179-0.437 0.041-0.174 0.062-0.373 0.062-0.598zM44.38 43.664c0-0.076-0.012-0.144-0.035-0.205-0.021-0.063-0.063-0.119-0.123-0.17-0.061-0.053-0.146-0.105-0.255-0.155s-0.251-0.104-0.425-0.158c-0.193-0.063-0.377-0.133-0.551-0.211-0.172-0.078-0.324-0.169-0.457-0.272-0.131-0.105-0.234-0.228-0.311-0.366-0.074-0.139-0.111-0.3-0.111-0.483 0-0.178 0.039-0.339 0.117-0.483 0.078-0.146 0.188-0.271 0.328-0.375 0.141-0.105 0.307-0.186 0.498-0.243 0.193-0.057 0.405-0.085 0.636-0.085 0.314 0 0.589 0.057 0.823 0.17s0.416 0.269 0.545 0.466c0.131 0.197 0.196 0.423 0.196 0.677h-0.873c0-0.125-0.026-0.234-0.079-0.328-0.051-0.096-0.129-0.171-0.234-0.226-0.104-0.055-0.234-0.082-0.393-0.082-0.152 0-0.279 0.023-0.381 0.070-0.102 0.045-0.178 0.106-0.228 0.185-0.051 0.076-0.076 0.162-0.076 0.258 0 0.072 0.018 0.138 0.053 0.196 0.037 0.059 0.092 0.113 0.164 0.164s0.161 0.099 0.267 0.144c0.105 0.045 0.227 0.089 0.366 0.132 0.232 0.070 0.437 0.149 0.612 0.237 0.178 0.088 0.326 0.186 0.445 0.296s0.209 0.233 0.27 0.372c0.060 0.139 0.091 0.296 0.091 0.472 0 0.186-0.036 0.351-0.108 0.498s-0.177 0.27-0.314 0.372c-0.137 0.102-0.3 0.179-0.489 0.231s-0.401 0.079-0.636 0.079c-0.211 0-0.419-0.027-0.624-0.082-0.205-0.057-0.392-0.142-0.56-0.255-0.166-0.113-0.299-0.258-0.398-0.434s-0.149-0.384-0.149-0.624h0.882c0 0.133 0.021 0.245 0.062 0.337s0.099 0.166 0.173 0.223c0.076 0.057 0.166 0.098 0.27 0.123 0.105 0.025 0.221 0.038 0.346 0.038 0.152 0 0.277-0.021 0.375-0.064 0.1-0.043 0.173-0.103 0.22-0.179 0.049-0.076 0.073-0.162 0.073-0.258zM47.764 40.515v4.266h-0.876v-4.266h0.876zM49.077 40.515v0.689h-3.48v-0.689h3.48zM52.44 44.095v0.686h-2.271v-0.686h2.271zM50.456 40.515v4.266h-0.879v-4.266h0.879zM52.144 42.252v0.668h-1.975v-0.668h1.975zM52.437 40.515v0.689h-2.268v-0.689h2.268zM52.953 40.515h1.591c0.326 0 0.606 0.049 0.841 0.147 0.236 0.098 0.418 0.242 0.545 0.434s0.19 0.427 0.19 0.706c0 0.229-0.039 0.425-0.117 0.589-0.076 0.162-0.185 0.298-0.325 0.407-0.139 0.108-0.302 0.193-0.489 0.258l-0.278 0.146h-1.383l-0.006-0.686h1.028c0.154 0 0.282-0.027 0.384-0.082s0.178-0.131 0.228-0.229c0.053-0.098 0.079-0.211 0.079-0.34 0-0.137-0.025-0.255-0.076-0.354s-0.128-0.176-0.231-0.228-0.233-0.079-0.39-0.079h-0.712v3.577h-0.879v-4.266zM55.337 44.781l-0.973-1.901 0.929-0.006 0.984 1.866v0.041h-0.94zM59.952 43.26h-1.087v-0.686h1.087c0.168 0 0.305-0.027 0.41-0.082 0.105-0.057 0.183-0.135 0.231-0.234s0.073-0.212 0.073-0.337c0-0.127-0.024-0.245-0.073-0.354s-0.126-0.197-0.231-0.264-0.242-0.1-0.41-0.1h-0.782v3.577h-0.879v-4.266h1.661c0.334 0 0.62 0.061 0.858 0.182 0.24 0.119 0.424 0.284 0.551 0.495s0.19 0.452 0.19 0.724c0 0.275-0.063 0.514-0.19 0.715s-0.311 0.357-0.551 0.466c-0.238 0.109-0.525 0.164-0.858 0.164zM65.020 44.095v0.686h-2.271v-0.686h2.271zM63.037 40.515v4.266h-0.879v-4.266h0.879zM64.724 42.252v0.668h-1.975v-0.668h1.975zM65.017 40.515v0.689h-2.268v-0.689h2.268zM67.498 40.515v4.266h-0.876v-4.266h0.876zM68.811 40.515v0.689h-3.48v-0.689h3.48zM72.174 44.095v0.686h-2.271v-0.686h2.271zM70.191 40.515v4.266h-0.879v-4.266h0.879zM71.878 42.252v0.668h-1.975v-0.668h1.975zM72.171 40.515v0.689h-2.268v-0.689h2.268zM72.687 40.515h1.591c0.326 0 0.606 0.049 0.841 0.147 0.236 0.098 0.418 0.242 0.545 0.434s0.19 0.427 0.19 0.706c0 0.229-0.039 0.425-0.117 0.589-0.076 0.162-0.185 0.298-0.325 0.407-0.139 0.108-0.302 0.193-0.489 0.258l-0.278 0.146h-1.383l-0.006-0.686h1.028c0.154 0 0.282-0.027 0.384-0.082s0.178-0.131 0.228-0.229c0.053-0.098 0.079-0.211 0.079-0.34 0-0.137-0.025-0.255-0.076-0.354s-0.128-0.176-0.231-0.228c-0.104-0.053-0.233-0.079-0.39-0.079h-0.712v3.577h-0.879v-4.266zM75.072 44.781l-0.973-1.901 0.929-0.006 0.984 1.866v0.041h-0.94zM78.751 43.664c0-0.076-0.012-0.144-0.035-0.205-0.021-0.063-0.063-0.119-0.123-0.17-0.061-0.053-0.146-0.105-0.255-0.155s-0.251-0.104-0.425-0.158c-0.193-0.063-0.377-0.133-0.551-0.211-0.172-0.078-0.324-0.169-0.457-0.272-0.131-0.105-0.234-0.228-0.311-0.366-0.074-0.139-0.111-0.3-0.111-0.483 0-0.178 0.039-0.339 0.117-0.483 0.078-0.146 0.188-0.271 0.328-0.375 0.141-0.105 0.307-0.186 0.498-0.243 0.193-0.057 0.405-0.085 0.636-0.085 0.314 0 0.589 0.057 0.823 0.17s0.416 0.269 0.545 0.466c0.131 0.197 0.196 0.423 0.196 0.677h-0.873c0-0.125-0.026-0.234-0.079-0.328-0.051-0.096-0.129-0.171-0.234-0.226-0.104-0.055-0.234-0.082-0.393-0.082-0.152 0-0.279 0.023-0.381 0.070-0.102 0.045-0.178 0.106-0.228 0.185-0.051 0.076-0.076 0.162-0.076 0.258 0 0.072 0.018 0.138 0.053 0.196 0.037 0.059 0.092 0.113 0.164 0.164s0.161 0.099 0.267 0.144c0.105 0.045 0.228 0.089 0.366 0.132 0.232 0.070 0.437 0.149 0.612 0.237 0.178 0.088 0.326 0.186 0.445 0.296s0.209 0.233 0.27 0.372c0.060 0.139 0.091 0.296 0.091 0.472 0 0.186-0.036 0.351-0.108 0.498s-0.177 0.27-0.314 0.372c-0.137 0.102-0.3 0.179-0.489 0.231s-0.401 0.079-0.636 0.079c-0.211 0-0.419-0.027-0.624-0.082-0.205-0.057-0.392-0.142-0.56-0.255-0.166-0.113-0.299-0.258-0.398-0.434s-0.149-0.384-0.149-0.624h0.882c0 0.133 0.021 0.245 0.062 0.337s0.099 0.166 0.173 0.223c0.076 0.057 0.166 0.098 0.27 0.123 0.105 0.025 0.221 0.038 0.346 0.038 0.152 0 0.277-0.021 0.375-0.064 0.1-0.043 0.173-0.103 0.22-0.179 0.049-0.076 0.073-0.162 0.073-0.258z"></path>
</symbol>
<symbol id="icon-Logo-3" viewBox="0 0 104 56">
<path d="M36.81 49.223c0.016 0 0.032 0.003 0.047 0.009s0.028 0.014 0.039 0.024l0.221 0.208c-0.171 0.168-0.383 0.302-0.621 0.394-0.278 0.1-0.579 0.148-0.881 0.141-0.284 0.005-0.566-0.040-0.828-0.132-0.237-0.085-0.449-0.212-0.624-0.373-0.178-0.167-0.315-0.363-0.403-0.575-0.096-0.237-0.144-0.487-0.141-0.738-0.004-0.253 0.048-0.504 0.152-0.741 0.096-0.214 0.242-0.41 0.428-0.575 0.189-0.162 0.414-0.29 0.662-0.375 0.272-0.090 0.561-0.135 0.853-0.132 0.271-0.006 0.54 0.035 0.792 0.12 0.219 0.081 0.419 0.194 0.594 0.333l-0.185 0.222c-0.013 0.016-0.029 0.029-0.047 0.040-0.022 0.013-0.048 0.019-0.074 0.017-0.029-0.002-0.056-0.010-0.080-0.024l-0.099-0.059-0.138-0.076c-0.060-0.028-0.121-0.052-0.185-0.073-0.082-0.025-0.166-0.045-0.251-0.059-0.108-0.017-0.218-0.025-0.329-0.024-0.21-0.002-0.418 0.032-0.613 0.099-0.181 0.063-0.345 0.157-0.48 0.278-0.138 0.129-0.244 0.279-0.312 0.444-0.078 0.188-0.116 0.386-0.113 0.585-0.003 0.202 0.035 0.403 0.113 0.594 0.067 0.163 0.171 0.313 0.306 0.441 0.126 0.12 0.283 0.213 0.458 0.274 0.18 0.064 0.374 0.096 0.569 0.094 0.113 0.001 0.225-0.005 0.337-0.019 0.182-0.019 0.357-0.073 0.511-0.158 0.077-0.043 0.15-0.092 0.218-0.146 0.028-0.023 0.066-0.037 0.105-0.038v0z"></path>
<path d="M43.186 48.18c0.004 0.25-0.047 0.499-0.149 0.734-0.090 0.213-0.232 0.407-0.416 0.57s-0.406 0.29-0.652 0.374c-0.54 0.176-1.138 0.176-1.678 0-0.244-0.085-0.465-0.213-0.649-0.375-0.184-0.165-0.327-0.361-0.42-0.575-0.199-0.475-0.199-0.994 0-1.469 0.094-0.214 0.237-0.411 0.42-0.578 0.185-0.157 0.406-0.28 0.649-0.361 0.54-0.179 1.138-0.179 1.678 0 0.245 0.085 0.467 0.213 0.651 0.375 0.182 0.164 0.323 0.357 0.417 0.568 0.102 0.236 0.153 0.486 0.149 0.738zM42.606 48.18c0.004-0.2-0.031-0.4-0.105-0.59-0.062-0.163-0.162-0.313-0.295-0.441-0.129-0.121-0.289-0.216-0.466-0.278-0.393-0.129-0.827-0.129-1.22 0-0.178 0.062-0.337 0.157-0.466 0.278-0.135 0.127-0.236 0.278-0.298 0.441-0.14 0.384-0.14 0.795 0 1.179 0.062 0.163 0.164 0.313 0.298 0.441 0.13 0.12 0.289 0.215 0.466 0.276 0.393 0.126 0.827 0.126 1.22 0 0.178-0.061 0.337-0.155 0.466-0.276 0.132-0.128 0.233-0.279 0.295-0.441 0.074-0.19 0.109-0.389 0.105-0.59v0z"></path>
<path d="M47.537 48.799l0.058 0.132c0.022-0.047 0.041-0.090 0.063-0.132 0.021-0.044 0.045-0.088 0.072-0.13l1.41-2.191c0.028-0.038 0.053-0.061 0.080-0.068 0.038-0.010 0.077-0.014 0.116-0.012h0.417v3.563h-0.494v-2.62c0-0.033 0-0.071 0-0.111-0.003-0.041-0.003-0.082 0-0.123l-1.419 2.222c-0.018 0.033-0.047 0.062-0.083 0.081s-0.078 0.030-0.121 0.030h-0.080c-0.043 0-0.085-0.010-0.122-0.029s-0.065-0.048-0.083-0.081l-1.46-2.236c0 0.042 0 0.085 0 0.127s0 0.080 0 0.113v2.62h-0.477v-3.556h0.417c0.039-0.002 0.078 0.002 0.116 0.012 0.034 0.014 0.062 0.039 0.077 0.068l1.441 2.193c0.028 0.041 0.052 0.083 0.072 0.127v0z"></path>
<path d="M52.845 48.622v1.335h-0.552v-3.559h1.231c0.232-0.004 0.464 0.022 0.687 0.078 0.179 0.043 0.344 0.119 0.486 0.222 0.123 0.096 0.217 0.216 0.276 0.349 0.065 0.145 0.097 0.3 0.094 0.455 0.003 0.156-0.032 0.311-0.102 0.455-0.066 0.137-0.168 0.258-0.298 0.356-0.142 0.107-0.308 0.188-0.489 0.236-0.215 0.059-0.44 0.087-0.665 0.083l-0.668-0.009zM52.845 48.24h0.668c0.145 0.002 0.29-0.017 0.428-0.054 0.114-0.033 0.219-0.085 0.309-0.153 0.083-0.065 0.147-0.146 0.188-0.236 0.045-0.095 0.068-0.197 0.066-0.3 0.007-0.099-0.012-0.198-0.055-0.29s-0.109-0.175-0.193-0.243c-0.211-0.141-0.476-0.209-0.742-0.191h-0.668v1.467z"></path>
<path d="M60.264 49.961h-0.436c-0.044 0.001-0.087-0.010-0.121-0.033-0.031-0.022-0.056-0.050-0.072-0.083l-0.375-0.861h-1.885l-0.389 0.861c-0.014 0.032-0.038 0.059-0.069 0.080-0.035 0.024-0.079 0.037-0.124 0.035h-0.436l1.656-3.564h0.574l1.678 3.564zM57.532 48.638h1.557l-0.657-1.45c-0.050-0.109-0.092-0.221-0.124-0.335l-0.063 0.186c-0.019 0.057-0.041 0.108-0.061 0.151l-0.651 1.448z"></path>
<path d="M62.65 46.414c0.033 0.015 0.061 0.037 0.083 0.064l2.415 2.686c0-0.042 0-0.085 0-0.125s0-0.080 0-0.118v-2.524h0.494v3.564h-0.276c-0.039 0.001-0.078-0.006-0.113-0.021-0.034-0.017-0.064-0.039-0.088-0.066l-2.412-2.684c0.003 0.041 0.003 0.082 0 0.123 0 0.040 0 0.076 0 0.108v2.54h-0.494v-3.564h0.293c0.034-0.001 0.068 0.005 0.099 0.017v0z"></path>
<path d="M69.71 48.544v1.415h-0.552v-1.415l-1.526-2.146h0.494c0.043-0.002 0.085 0.009 0.119 0.031 0.030 0.023 0.055 0.050 0.075 0.080l0.955 1.384c0.039 0.059 0.072 0.113 0.099 0.165s0.050 0.101 0.069 0.151l0.072-0.153c0.027-0.056 0.058-0.111 0.094-0.163l0.941-1.394c0.020-0.028 0.044-0.053 0.072-0.075 0.033-0.025 0.075-0.037 0.119-0.035h0.5l-1.529 2.156z"></path>
<path d="M47.263 40.417c0.24 0.026 0.483 0.047 0.729 0.066 3.725-1.424 6.875-3.753 9.059-6.699s3.302-6.375 3.217-9.86l-4.105-3.507c0.835 3.711 0.444 7.547-1.127 11.079s-4.263 6.621-7.772 8.921v0z"></path>
<path d="M45.797 40.254l0.11 0.019c3.75-2.292 6.609-5.492 8.207-9.187s1.862-7.714 0.758-11.539l-5.846-4.995c2.365 4.106 3.317 8.701 2.745 13.251s-2.643 8.868-5.974 12.451v0z"></path>
<path d="M65.625 28.042c-0.993 3.83-3.406 7.283-6.879 9.849-1.014 0.753-2.108 1.424-3.268 2.005 2.828-0.71 5.428-1.966 7.598-3.67s3.854-3.812 4.92-6.16l-2.371-2.023z"></path>
<path d="M64.695 27.478l-3.376-2.884c-0.064 3.289-1.159 6.502-3.169 9.307s-4.863 5.099-8.262 6.643h0.017c0.757-0 1.514-0.039 2.266-0.116 3.176-1.108 5.982-2.87 8.168-5.13s3.682-4.946 4.356-7.82v0z"></path>
<path d="M46.286 12.446l-4.027-3.446c-3.6 1.189-6.697 3.278-8.884 5.996s-3.364 5.935-3.375 9.233v0c0.014 3.644 1.449 7.18 4.079 10.048s6.305 4.906 10.443 5.789c3.694-3.845 5.856-8.596 6.174-13.563s-1.228-9.891-4.41-14.057v0z"></path>
<path d="M74 26.948c-0.015-4.323-2.031-8.466-5.609-11.523s-8.427-4.78-13.487-4.792v0c-2.338-0.002-4.657 0.367-6.837 1.087l24.658 21.068c0.844-1.862 1.277-3.842 1.275-5.839v0z"></path>
</symbol>
<symbol id="icon-Logo-2" viewBox="0 0 104 56">
<path d="M50.114 5.935h-0.137c-0.21-0.013-0.42-0.018-0.63-0.023v0h-0.455c-0.397 0-0.802 0.010-1.204 0.031-0.030-0.002-0.061-0.002-0.091 0-3.644 0.206-7.215 1.117-10.516 2.683l-0.433 0.209v22.141l1.012-0.343c0.888-0.305 1.834-0.58 2.813-0.834 2.646-0.679 5.364-1.040 8.095-1.076v2.909c-0.362 0.003-0.713 0.013-1.065 0.031h-0.084c-2.102 0.115-4.188 0.435-6.228 0.956-2.584 0.647-5.077 1.618-7.42 2.891v-28.397c2.433-1.419 5.054-2.485 7.784-3.166 2.397-0.619 4.861-0.937 7.336-0.946h0.427c0.511 0.013 1.009 0.036 1.477 0.071 1.233 0.087 2.456 0.281 3.655 0.582v2.863c-1.165-0.271-2.349-0.45-3.542-0.534-0.024-0.002-0.048-0.004-0.073-0.006-0.247-0.021-0.494-0.042-0.724-0.042zM55.153 8.861c0.635 0.048 1.293 0.071 1.958 0.071 2.602-0.010 5.192-0.342 7.713-0.989 2.583-0.649 5.075-1.622 7.417-2.894v27.891c-2.434 1.418-5.056 2.484-7.787 3.166-2.397 0.617-4.861 0.933-7.336 0.944-1.875 0.015-3.745-0.205-5.565-0.656v-28.071c0.43 0.099 0.873 0.191 1.323 0.267 0.739 0.125 1.518 0.216 2.277 0.272zM69.347 9.078l-1.012 0.341c-0.931 0.313-1.869 0.593-2.813 0.842-2.747 0.706-5.571 1.068-8.406 1.078-0.66 0-1.267-0.018-1.854-0.056l-0.807-0.053v22.777l0.693 0.061c0.643 0.056 1.305 0.084 1.973 0.084 2.233-0.009 4.457-0.297 6.62-0.857 1.781-0.447 3.514-1.069 5.173-1.859l0.433-0.209v-22.149z"></path>
<path d="M35.737 45.212c-0.145-0.151-0.321-0.269-0.515-0.348s-0.402-0.115-0.611-0.107c-0.223-0.003-0.444 0.038-0.65 0.122-0.189 0.075-0.361 0.189-0.506 0.333-0.143 0.145-0.254 0.318-0.326 0.509-0.079 0.2-0.119 0.413-0.116 0.628v3.794c-0.009 0.267 0.042 0.533 0.149 0.778 0.090 0.194 0.219 0.368 0.379 0.509 0.152 0.128 0.33 0.22 0.521 0.27 0.184 0.052 0.375 0.078 0.567 0.079 0.211 0.002 0.42-0.043 0.612-0.132 0.19-0.083 0.361-0.202 0.506-0.351 0.141-0.147 0.253-0.32 0.331-0.509 0.081-0.191 0.122-0.397 0.122-0.605v-0.425h-0.992v0.338c0.003 0.115-0.017 0.23-0.058 0.338-0.032 0.081-0.081 0.154-0.144 0.214-0.061 0.050-0.132 0.087-0.207 0.109-0.067 0.022-0.137 0.034-0.207 0.036-0.089 0.010-0.178-0.003-0.26-0.039s-0.153-0.092-0.206-0.165c-0.094-0.153-0.139-0.33-0.132-0.509v-3.537c-0.006-0.196 0.035-0.391 0.121-0.567 0.052-0.080 0.124-0.144 0.21-0.185s0.181-0.056 0.276-0.044c0.085-0.003 0.17 0.015 0.248 0.052s0.144 0.093 0.195 0.162c0.111 0.146 0.169 0.325 0.164 0.509v0.328h0.982v-0.386c0.002-0.227-0.039-0.452-0.122-0.664-0.073-0.199-0.186-0.381-0.331-0.534v0z"></path>
<path d="M41.629 45.169c-0.316-0.267-0.715-0.414-1.128-0.417-0.202 0.001-0.402 0.037-0.592 0.107-0.193 0.069-0.37 0.174-0.524 0.31-0.164 0.148-0.295 0.329-0.385 0.532-0.1 0.232-0.149 0.482-0.144 0.735v3.639c-0.007 0.256 0.042 0.51 0.144 0.745 0.090 0.196 0.221 0.369 0.385 0.508 0.152 0.141 0.33 0.25 0.524 0.321 0.19 0.070 0.39 0.106 0.592 0.107 0.202-0 0.402-0.037 0.592-0.107 0.197-0.072 0.379-0.181 0.536-0.321 0.158-0.142 0.286-0.315 0.374-0.508 0.102-0.235 0.151-0.489 0.144-0.745v-3.639c0.005-0.252-0.044-0.503-0.144-0.735-0.088-0.2-0.216-0.381-0.374-0.532v0zM41.166 50.074c0.008 0.097-0.005 0.195-0.039 0.286s-0.088 0.173-0.158 0.241c-0.131 0.11-0.296 0.17-0.467 0.17s-0.336-0.060-0.467-0.17c-0.070-0.067-0.124-0.15-0.158-0.241s-0.048-0.189-0.039-0.286v-3.639c-0.008-0.097 0.005-0.195 0.039-0.286s0.088-0.173 0.158-0.241c0.131-0.11 0.296-0.17 0.467-0.17s0.336 0.060 0.467 0.17c0.070 0.067 0.124 0.15 0.158 0.241s0.048 0.189 0.039 0.286v3.639z"></path>
<path d="M49.367 51.699v-6.889h-0.954l-1.252 3.647h-0.018l-1.262-3.647h-0.944v6.889h0.984v-4.191h0.018l0.964 2.962h0.491l0.971-2.962h0.018v4.191h0.984z"></path>
<path d="M54.958 45.294c-0.152-0.17-0.343-0.299-0.557-0.376-0.23-0.075-0.471-0.111-0.713-0.107h-1.462v6.889h0.981v-2.69h0.506c0.306 0.014 0.611-0.051 0.885-0.188 0.223-0.124 0.409-0.306 0.539-0.526 0.113-0.183 0.19-0.387 0.225-0.6 0.039-0.259 0.056-0.521 0.053-0.783 0.010-0.331-0.023-0.662-0.096-0.984-0.066-0.238-0.19-0.456-0.362-0.633v0zM54.452 47.394c-0.004 0.125-0.035 0.247-0.091 0.359-0.056 0.106-0.145 0.191-0.253 0.242-0.145 0.065-0.304 0.095-0.463 0.087h-0.448v-2.342h0.506c0.152-0.007 0.304 0.022 0.443 0.086 0.102 0.058 0.182 0.147 0.23 0.254 0.054 0.121 0.083 0.252 0.086 0.384 0 0.145 0 0.298 0 0.458s0.010 0.325 0 0.473h-0.010z"></path>
<path d="M59.608 44.811h-0.805l-1.518 6.889h0.981l0.288-1.48h1.338l0.288 1.48h0.982l-1.556-6.889zM58.702 49.281l0.483-2.497h0.018l0.481 2.497h-0.982z"></path>
<path d="M65.95 48.961h-0.018l-1.482-4.15h-0.944v6.889h0.981v-4.142h0.020l1.5 4.142h0.923v-6.889h-0.981v4.15z"></path>
<path d="M71.948 44.811l-0.789 2.739h-0.020l-0.789-2.739h-1.040l1.348 3.977v2.912h0.982v-2.912l1.348-3.977h-1.040z"></path>
<path d="M33 53.645h0.473v1.327h0.321v-1.327h0.471v-0.272h-1.265v0.272z"></path>
<path d="M36.977 53.372l-0.62 1.6h0.342l0.132-0.364h0.637l0.137 0.364h0.349l-0.635-1.6h-0.342zM36.926 54.339l0.218-0.592 0.217 0.592h-0.435z"></path>
<path d="M40.908 54.382h0.369v0.206c-0.108 0.087-0.242 0.134-0.379 0.135-0.064 0.004-0.129-0.008-0.188-0.035s-0.111-0.067-0.151-0.118c-0.085-0.122-0.127-0.269-0.119-0.417 0-0.356 0.154-0.534 0.46-0.534 0.081-0.008 0.161 0.013 0.228 0.060s0.114 0.116 0.134 0.194l0.316-0.061c-0.068-0.313-0.293-0.47-0.678-0.47-0.206-0.006-0.406 0.068-0.559 0.206-0.081 0.080-0.143 0.176-0.183 0.282s-0.056 0.22-0.048 0.333c-0.009 0.219 0.064 0.433 0.205 0.6 0.078 0.081 0.173 0.144 0.278 0.184s0.217 0.057 0.329 0.050c0.25 0.007 0.493-0.084 0.678-0.254v-0.631h-0.693v0.27z"></path>
<path d="M44.923 53.372h-0.324v1.6h1.121v-0.272h-0.797v-1.327z"></path>
<path d="M48.317 53.372h-0.324v1.6h0.324v-1.6z"></path>
<path d="M51.636 54.44l-0.655-1.068h-0.314v1.6h0.301v-1.045l0.643 1.045h0.321v-1.6h-0.296v1.068z"></path>
<path d="M54.637 54.268h0.797v-0.272h-0.797v-0.351h0.858v-0.272h-1.181v1.6h1.214v-0.272h-0.89v-0.432z"></path>
<path d="M61.912 54.003h-0.63v-0.631h-0.321v1.6h0.321v-0.699h0.63v0.699h0.321v-1.6h-0.321v0.631z"></path>
<path d="M64.93 54.268h0.799v-0.272h-0.799v-0.351h0.86v-0.272h-1.181v1.6h1.212v-0.272h-0.89v-0.432z"></path>
<path d="M69.023 54.268c0.278-0.043 0.42-0.191 0.42-0.445 0.008-0.068-0.002-0.137-0.030-0.2s-0.071-0.117-0.127-0.156c-0.145-0.073-0.306-0.105-0.468-0.094h-0.678v1.599h0.321v-0.669h0.063c0.069-0.004 0.137 0.008 0.2 0.036 0.047 0.029 0.086 0.069 0.114 0.117l0.349 0.509h0.385l-0.195-0.313c-0.086-0.154-0.207-0.286-0.354-0.384v0zM68.699 54.046h-0.238v-0.402h0.253c0.11-0.009 0.221 0.004 0.326 0.038 0.023 0.021 0.042 0.046 0.054 0.075s0.018 0.060 0.016 0.091c-0.001 0.031-0.010 0.062-0.025 0.089s-0.036 0.051-0.061 0.070c-0.106 0.032-0.216 0.045-0.326 0.038v0z"></path>
<path d="M72.11 54.268h0.797v-0.272h-0.797v-0.351h0.86v-0.272h-1.184v1.6h1.214v-0.272h-0.89v-0.432z"></path>
</symbol>
<symbol id="icon-Logo-1" viewBox="0 0 104 56">
<path d="M38 7l7.008 6.676-13.008-0.008v32.392h34v-12.385l7 6.669v-33.345h-35zM65.692 32.892l-19.87-18.93h19.87v18.93zM59.523 41.323h-22.143v-21.785h1.565v20.31h20.578v1.475zM41.796 52.061l-0.825-1.697h-0.681l1.196 2.246v1.309h0.618v-1.309l1.196-2.246h-0.679l-0.825 1.697zM44.838 50.364h0.147l1.343 3.555h-0.644l-0.288-0.833h-1.376l-0.287 0.833h-0.642l1.338-3.555h0.41zM44.186 52.601h1.041l-0.521-1.508-0.52 1.508zM48.482 52.012c-0.027-0.034-0.053-0.067-0.077-0.099-0.091-0.12-0.162-0.237-0.212-0.349-0.050-0.114-0.076-0.231-0.076-0.352 0-0.186 0.038-0.345 0.115-0.479s0.185-0.236 0.325-0.308c0.14-0.073 0.304-0.11 0.491-0.11 0.181 0 0.336 0.037 0.466 0.11 0.132 0.072 0.233 0.167 0.303 0.286 0.072 0.119 0.107 0.249 0.107 0.391 0 0.112-0.020 0.215-0.061 0.308s-0.097 0.177-0.168 0.254c-0.072 0.077-0.155 0.149-0.249 0.217l-0.247 0.18 0.704 0.831c0.023-0.046 0.044-0.094 0.063-0.144 0.060-0.156 0.090-0.33 0.090-0.52h0.508c0 0.173-0.017 0.336-0.051 0.491-0.032 0.155-0.085 0.298-0.159 0.43-0.030 0.055-0.063 0.107-0.101 0.157l0.521 0.615h-0.681l-0.207-0.243c-0.112 0.085-0.233 0.151-0.365 0.199-0.172 0.062-0.356 0.093-0.552 0.093-0.236 0-0.44-0.043-0.613-0.129s-0.306-0.205-0.4-0.357c-0.093-0.151-0.139-0.325-0.139-0.52 0-0.145 0.030-0.272 0.090-0.381 0.060-0.111 0.143-0.213 0.247-0.308 0.096-0.087 0.206-0.175 0.329-0.262zM48.774 52.369l-0.074 0.053c-0.086 0.070-0.151 0.138-0.193 0.203-0.041 0.063-0.067 0.122-0.081 0.176s-0.020 0.101-0.020 0.142c0 0.104 0.022 0.199 0.066 0.283 0.046 0.085 0.112 0.152 0.198 0.203 0.088 0.049 0.195 0.073 0.32 0.073 0.135 0 0.266-0.030 0.393-0.090 0.064-0.031 0.124-0.068 0.181-0.112l-0.791-0.93zM48.914 51.72l0.218-0.147c0.103-0.068 0.176-0.135 0.22-0.2 0.044-0.067 0.066-0.15 0.066-0.249 0-0.085-0.033-0.163-0.098-0.234s-0.157-0.107-0.276-0.107c-0.083 0-0.153 0.020-0.21 0.059-0.057 0.037-0.1 0.088-0.129 0.151-0.028 0.062-0.042 0.131-0.042 0.207 0 0.073 0.019 0.149 0.056 0.227 0.038 0.077 0.089 0.157 0.154 0.242 0.013 0.017 0.027 0.034 0.041 0.052zM55.133 52.762h-0.61c-0.018 0.155-0.055 0.286-0.112 0.393-0.055 0.106-0.137 0.186-0.246 0.242-0.108 0.055-0.248 0.083-0.422 0.083-0.143 0-0.266-0.028-0.369-0.085s-0.187-0.137-0.254-0.242c-0.065-0.104-0.114-0.229-0.146-0.374-0.031-0.147-0.046-0.309-0.046-0.488v-0.3c0-0.189 0.017-0.356 0.051-0.503 0.036-0.148 0.089-0.273 0.159-0.374s0.157-0.177 0.261-0.229c0.104-0.052 0.226-0.078 0.366-0.078 0.171 0 0.309 0.029 0.415 0.088 0.106 0.057 0.186 0.14 0.239 0.249 0.055 0.109 0.091 0.24 0.107 0.393h0.61c-0.024-0.238-0.091-0.448-0.2-0.632-0.107-0.184-0.259-0.328-0.454-0.432s-0.434-0.156-0.718-0.156c-0.223 0-0.424 0.039-0.603 0.117-0.177 0.078-0.329 0.191-0.456 0.339-0.127 0.146-0.225 0.323-0.293 0.53-0.067 0.207-0.1 0.438-0.1 0.693v0.295c0 0.255 0.033 0.487 0.098 0.693 0.067 0.207 0.163 0.383 0.288 0.53 0.125 0.145 0.276 0.257 0.452 0.337 0.176 0.078 0.374 0.117 0.593 0.117 0.287 0 0.53-0.052 0.73-0.156s0.356-0.247 0.466-0.427c0.111-0.182 0.176-0.39 0.195-0.623zM58.524 52.239v-0.195c0-0.269-0.036-0.509-0.107-0.72-0.070-0.213-0.17-0.395-0.3-0.544-0.13-0.151-0.286-0.266-0.466-0.344-0.181-0.080-0.381-0.12-0.601-0.12-0.218 0-0.417 0.040-0.598 0.12-0.179 0.078-0.335 0.193-0.466 0.344-0.13 0.15-0.231 0.331-0.303 0.544-0.072 0.212-0.107 0.452-0.107 0.72v0.195c0 0.269 0.036 0.51 0.107 0.723 0.073 0.213 0.176 0.395 0.308 0.544s0.287 0.265 0.466 0.344c0.181 0.078 0.38 0.117 0.598 0.117 0.22 0 0.42-0.039 0.601-0.117 0.181-0.080 0.335-0.195 0.464-0.344 0.13-0.15 0.23-0.331 0.3-0.544s0.105-0.454 0.105-0.723zM57.912 52.039v0.2c0 0.199-0.020 0.374-0.059 0.527-0.037 0.153-0.093 0.282-0.166 0.388-0.073 0.104-0.163 0.183-0.269 0.237-0.106 0.052-0.227 0.078-0.364 0.078-0.135 0-0.255-0.026-0.361-0.078-0.106-0.054-0.197-0.133-0.273-0.237-0.075-0.106-0.132-0.235-0.171-0.388s-0.059-0.329-0.059-0.527v-0.2c0-0.199 0.020-0.374 0.059-0.525 0.039-0.153 0.095-0.281 0.168-0.383 0.075-0.104 0.165-0.182 0.271-0.234 0.106-0.054 0.226-0.081 0.361-0.081s0.256 0.027 0.364 0.081c0.107 0.052 0.198 0.13 0.271 0.234 0.075 0.103 0.131 0.23 0.168 0.383 0.039 0.151 0.059 0.326 0.059 0.525z"></path>
</symbol>
</defs>
</svg>



