<svg aria-hidden="true" style="position: absolute; width: 0; height: 0; overflow: hidden;" version="1.1" xmlns="http://www.w3.org/2000/svg" xmlns:xlink="http://www.w3.org/1999/xlink">
<defs>
<symbol id="icon-icon-email" viewBox="0 0 18 24">
<path d="M15 6h-12c-0.825 0-1.493 0.675-1.493 1.5l-0.008 9c0 0.825 0.675 1.5 1.5 1.5h12c0.825 0 1.5-0.675 1.5-1.5v-9c0-0.825-0.675-1.5-1.5-1.5zM14.7 9.188l-5.303 3.315c-0.24 0.15-0.555 0.15-0.795 0l-5.303-3.315c-0.188-0.12-0.3-0.322-0.3-0.54 0-0.502 0.548-0.803 0.975-0.54l5.025 3.143 5.025-3.143c0.428-0.262 0.975 0.038 0.975 0.54 0 0.217-0.112 0.42-0.3 0.54z"></path>
</symbol>
<symbol id="icon-icon-phone" viewBox="0 0 18 24">
<path d="M14.726 13.865l-1.838-0.21c-0.441-0.051-0.876 0.101-1.187 0.412l-1.332 1.332c-2.048-1.042-3.727-2.714-4.769-4.769l1.339-1.339c0.311-0.311 0.463-0.745 0.413-1.187l-0.21-1.824c-0.087-0.731-0.702-1.281-1.44-1.281h-1.252c-0.818 0-1.498 0.68-1.447 1.498 0.384 6.18 5.326 11.116 11.499 11.499 0.818 0.051 1.498-0.63 1.498-1.447v-1.252c0.007-0.731-0.543-1.346-1.274-1.433z"></path>
</symbol>
<symbol id="icon-icon-person" viewBox="0 0 24 24">
<path d="M12 12c2.21 0 4-1.79 4-4s-1.79-4-4-4c-2.21 0-4 1.79-4 4s1.79 4 4 4zM12 14c-2.67 0-8 1.34-8 4v1c0 0.55 0.45 1 1 1h14c0.55 0 1-0.45 1-1v-1c0-2.66-5.33-4-8-4z"></path>
</symbol>
</defs>
</svg>


